Coordinates
version=1
nRows=54
nColumns=12
inDegrees=yes

Units are S.I. units (second, meters, Newtons, ...)
Angles are in degrees

endheader
time	SC_y	SC_z	SC_x	AC_y	AC_z	AC_x	GH_y	GH_z	GH_yy	EL_x	PS_y
       0.0              -44.81          1.066          69.51          34.15           1.41          12.43           22.5          -13.2          85.98          87.96          134.1
   0.03157               -44.8           1.07          69.51          34.15          1.411          12.43           22.5         -13.19          85.98          87.95          134.1
   0.06315               -44.8          1.075           69.5          34.16          1.412          12.43          22.49         -13.19          85.97          87.94          134.1
   0.09472              -44.79          1.079          69.49          34.16          1.413          12.43          22.49         -13.18          85.97          87.93          134.1
    0.1263              -44.79          1.084          69.49          34.16          1.414          12.42          22.48         -13.17          85.96          87.91          134.1
    0.1579              -44.78           1.09          69.48          34.16          1.415          12.42          22.48         -13.16          85.96           87.9          134.1
    0.1894              -44.78          1.095          69.47          34.17          1.417          12.42          22.47         -13.15          85.95          87.88          134.0
     0.221              -44.77          1.102          69.46          34.17          1.418          12.42          22.46         -13.14          85.94          87.87          134.0
    0.2526              -44.77          1.108          69.45          34.17           1.42          12.42          22.46         -13.13          85.94          87.85          134.0
    0.2842              -44.76          1.115          69.44          34.17          1.421          12.42          22.45         -13.12          85.93          87.83          134.0
    0.3157              -44.75          1.123          69.43          34.18          1.423          12.42          22.44         -13.11          85.92          87.81          133.9
    0.3473              -44.74          1.131          69.42          34.18          1.425          12.42          22.43          -13.1          85.91          87.79          133.9
    0.3789              -44.73          1.139           69.4          34.18          1.427          12.42          22.42         -13.08          85.91          87.76          133.9
    0.4104              -44.72          1.149          69.39          34.19          1.429          12.41          22.41         -13.07           85.9          87.74          133.8
     0.442              -44.71          1.159          69.38          34.19          1.432          12.41           22.4         -13.05          85.88          87.71          133.8
    0.4736               -44.7           1.17          69.36           34.2          1.434          12.41          22.39         -13.03          85.87          87.68          133.7
    0.5052              -44.69          1.182          69.34           34.2          1.437          12.41          22.37         -13.01          85.86          87.65          133.7
    0.5367              -44.68          1.195          69.32          34.21           1.44          12.41          22.36         -12.99          85.85          87.61          133.6
    0.5683              -44.66          1.209           69.3          34.22          1.443           12.4          22.34         -12.97          85.83          87.57          133.6
    0.5999              -44.65          1.225          69.28          34.22          1.447           12.4          22.32         -12.94          85.82          87.53          133.5
    0.6315              -44.63          1.242          69.26          34.23          1.451           12.4           22.3         -12.91           85.8          87.48          133.5
     0.663              -44.61          1.261          69.23          34.24          1.456           12.4          22.28         -12.88          85.78          87.43          133.4
    0.6946              -44.59          1.282           69.2          34.25          1.461          12.39          22.26         -12.85          85.76          87.37          133.3
    0.7262              -44.57          1.305          69.16          34.26          1.466          12.39          22.23         -12.81          85.73          87.31          133.2
    0.7577              -44.54          1.331          69.13          34.27          1.472          12.38           22.2         -12.77           85.7          87.24          133.1
    0.7893              -44.51          1.359          69.08          34.28          1.479          12.38          22.17         -12.72          85.67          87.16          133.0
    0.8209              -44.48          1.391          69.04           34.3          1.486          12.37          22.13         -12.67          85.64          87.07          132.9
    0.8525              -44.44          1.428          68.98          34.31          1.495          12.37          22.09         -12.61           85.6          86.97          132.8
     0.884               -44.4          1.468          68.92          34.33          1.505          12.36          22.05         -12.55          85.56          86.86          132.6
    0.9156              -44.35          1.515          68.86          34.35          1.515          12.35          21.99         -12.47          85.51          86.74          132.4
    0.9472               -44.3          1.568          68.78          34.38          1.528          12.35          21.93         -12.38          85.46          86.59          132.2
    0.9788              -44.24          1.628          68.69           34.4          1.542          12.34          21.86         -12.29          85.39          86.43          132.0
      1.01              -44.17          1.698          68.59          34.43          1.559          12.32          21.78         -12.17          85.32          86.23          131.7
     1.042              -44.09           1.78          68.47          34.47          1.578          12.31          21.69         -12.04          85.23          86.01          131.4
     1.073              -43.99          1.875          68.33          34.51            1.6           12.3          21.58         -11.89          85.13          85.75          131.0
     1.105              -43.88          1.988          68.17          34.56          1.627          12.28          21.45          -11.7          85.01          85.44          130.6
     1.137              -43.74          2.121          67.97          34.62          1.658          12.26           21.3         -11.49          84.87          85.08          130.1
     1.168              -43.58          2.281          67.74          34.69          1.696          12.23          21.12         -11.23          84.71          84.64          129.5
       1.2              -43.38          2.475          67.46          34.78          1.742           12.2           20.9         -10.91           84.5          84.11          128.7
     1.231              -43.14          2.711          67.11          34.88          1.797          12.16          20.63         -10.53          84.25          83.46          127.8
     1.263              -42.85          3.003          66.69          35.01          1.866          12.11          20.29         -10.05          83.95          82.66          126.7
     1.294              -42.48          3.367          66.16          35.18          1.952          12.05          19.88         -9.461          83.57          81.67          125.3
     1.326              -42.02          3.826          65.49          35.38           2.06          11.98          19.35         -8.715          83.08          80.41          123.5
     1.358              -41.43          4.409          64.64          35.64          2.197          11.88          18.69         -7.768          82.47          78.82          121.2
     1.389              -40.67          5.155          63.55          35.97          2.373          11.76          17.84         -6.556          81.69          76.78          118.4
     1.421               -39.7          6.112          62.15           36.4          2.599          11.61          16.74           -5.0          80.68          74.15          114.7
     1.452              -38.47          7.335          60.37          36.94          2.887          11.41          15.35         -3.012           79.4          70.81          110.0
     1.484              -36.91          8.873          58.12          37.63          3.249          11.16          13.59        -0.5131          77.79           66.6          104.0
     1.515              -35.01          10.75          55.39          38.46          3.691          10.85          11.45          2.532          75.82          61.47          96.79
     1.547              -32.82          12.92          52.22          39.43          4.203           10.5          8.969          6.062          73.54          55.53          88.41
     1.579              -30.44          15.27          48.79          40.48          4.757          10.11          6.283          9.885          71.07          49.09          79.33
      1.61              -28.06          17.62          45.36          41.53          5.311          9.732          3.597          13.71           68.6          42.65          70.26
     1.642              -25.86           19.8          42.19          42.49          5.823          9.378          1.117          17.24          66.32          36.71          61.87
     1.673              -23.96          21.67          39.46          43.33          6.264          9.073         -1.023          20.28          64.35          31.58          54.64
